# xmcd CD database file
#
# Track frame offsets:
#	150
#	22072
#	69522
#
# Disc length: 1204 seconds
#
# Revision: 0
# Processed by: cddbd v1.5.2PL0 Copyright (c) Steve Scherf et al.
# Submitted via: CDex 1.51
#
DISCID=2204b203
DTITLE=Marty Wynton - Natural Blue
DYEAR=1996
DGENRE=New Age
TTITLE0=New Horizons
TTITLE1=Natural Blue
TTITLE2=Valley Of The Sun
EXTD=YEAR: 1996
EXTT0=
EXTT1=
EXTT2=
PLAYORDER=
